<svg width="86" height="86" viewBox="0 0 86 86" fill="none" xmlns="http://www.w3.org/2000/svg">
<rect width="86" height="86" rx="8" fill="#EAB308"/>
<path d="M25.4688 18.5H43.375C46.875 18.5 49.9167 19.0208 52.5 20.0625C55.0833 21.1042 57.0729 22.6458 58.4688 24.6875C59.8854 26.7292 60.5938 29.25 60.5938 32.25C60.5938 34.8542 60.1875 37.0312 59.375 38.7812C58.5625 40.5312 57.4271 41.9792 55.9688 43.125C54.5312 44.25 52.8542 45.1771 50.9375 45.9062L47.3438 47.9375H32.3125L32.25 39.4688H43.375C44.7708 39.4688 45.9271 39.2188 46.8438 38.7188C47.7604 38.2188 48.4479 37.5104 48.9062 36.5938C49.3854 35.6562 49.625 34.5417 49.625 33.25C49.625 31.9375 49.3854 30.8125 48.9062 29.875C48.4271 28.9375 47.7188 28.2188 46.7812 27.7188C45.8646 27.2188 44.7292 26.9688 43.375 26.9688H36.4375V64H25.4688V18.5ZM50.375 64L40.3125 43.875L51.9375 43.8125L62.125 63.5312V64H50.375Z" fill="black"/>
</svg>
